<svg width="44" height="44" viewBox="0 0 44 44" fill="none" xmlns="http://www.w3.org/2000/svg">
<path fill-rule="evenodd" clip-rule="evenodd" d="M1.99999 4.8999C2.60751 4.8999 3.09999 5.39239 3.09999 5.9999V17.9999C3.09999 18.1945 3.18413 18.4626 3.50417 18.7989C3.82963 19.1409 4.35257 19.4989 5.08292 19.8234C6.54086 20.4713 8.632 20.8999 11 20.8999C13.368 20.8999 15.4591 20.4713 16.9171 19.8234C17.6474 19.4989 18.1704 19.1409 18.4958 18.7989C18.8159 18.4626 18.9 18.1945 18.9 17.9999V5.9999C18.9 5.39239 19.3925 4.8999 20 4.8999C20.6075 4.8999 21.1 5.39239 21.1 5.9999V17.9999C21.1 18.9103 20.6804 19.6947 20.0895 20.3156C19.504 20.9308 18.7088 21.4347 17.8104 21.8339C16.0109 22.6335 13.602 23.0999 11 23.0999C8.39799 23.0999 5.98913 22.6335 4.18956 21.8339C3.29117 21.4347 2.49598 20.9308 1.91051 20.3156C1.31961 19.6947 0.899994 18.9103 0.899994 17.9999V5.9999C0.899994 5.39239 1.39248 4.8999 1.99999 4.8999Z" fill="#BFBFBF"/>
<path fill-rule="evenodd" clip-rule="evenodd" d="M1.99999 10.8999C2.60751 10.8999 3.09999 11.3924 3.09999 11.9999C3.09999 12.1945 3.18413 12.4626 3.50417 12.7989C3.82963 13.1409 4.35257 13.4989 5.08292 13.8234C6.54086 14.4713 8.632 14.8999 11 14.8999C13.368 14.8999 15.4591 14.4713 16.9171 13.8234C17.6474 13.4989 18.1704 13.1409 18.4958 12.7989C18.8159 12.4626 18.9 12.1945 18.9 11.9999C18.9 11.3924 19.3925 10.8999 20 10.8999C20.6075 10.8999 21.1 11.3924 21.1 11.9999C21.1 12.9103 20.6804 13.6947 20.0895 14.3156C19.504 14.9308 18.7088 15.4347 17.8104 15.8339C16.0109 16.6335 13.602 17.0999 11 17.0999C8.39799 17.0999 5.98913 16.6335 4.18956 15.8339C3.29117 15.4347 2.49598 14.9308 1.91051 14.3156C1.31961 13.6947 0.899994 12.9103 0.899994 11.9999C0.899994 11.3924 1.39248 10.8999 1.99999 10.8999Z" fill="#BFBFBF"/>
<path fill-rule="evenodd" clip-rule="evenodd" d="M3.50417 5.20089C3.18413 5.53718 3.09999 5.80526 3.09999 5.9999C3.09999 6.19454 3.18413 6.46263 3.50417 6.79892C3.82963 7.14091 4.35257 7.49889 5.08292 7.82343C6.54086 8.47127 8.632 8.8999 11 8.8999C13.368 8.8999 15.4591 8.47127 16.9171 7.82343C17.6474 7.49889 18.1704 7.14091 18.4958 6.79892C18.8159 6.46263 18.9 6.19454 18.9 5.9999C18.9 5.80526 18.8159 5.53718 18.4958 5.20089C18.1704 4.8589 17.6474 4.50092 16.9171 4.17638C15.4591 3.52853 13.368 3.0999 11 3.0999C8.632 3.0999 6.54086 3.52853 5.08292 4.17638C4.35257 4.50092 3.82963 4.8589 3.50417 5.20089ZM4.18956 2.16593C5.98913 1.36627 8.39799 0.899902 11 0.899902C13.602 0.899902 16.0109 1.36627 17.8104 2.16593C18.7088 2.56514 19.504 3.06903 20.0895 3.68423C20.6804 4.30513 21.1 5.08954 21.1 5.9999C21.1 6.91026 20.6804 7.69468 20.0895 8.31557C19.504 8.93077 18.7088 9.43467 17.8104 9.83388C16.0109 10.6335 13.602 11.0999 11 11.0999C8.39799 11.0999 5.98913 10.6335 4.18956 9.83388C3.29117 9.43467 2.49598 8.93077 1.91051 8.31557C1.31961 7.69468 0.899994 6.91026 0.899994 5.9999C0.899994 5.08954 1.31961 4.30513 1.91051 3.68423C2.49598 3.06903 3.29117 2.56514 4.18956 2.16593Z" fill="#BFBFBF"/>
<path fill-rule="evenodd" clip-rule="evenodd" d="M24 24.8999C24.6075 24.8999 25.1 25.3924 25.1 25.9999V37.9999C25.1 38.1945 25.1841 38.4626 25.5042 38.7989C25.8296 39.1409 26.3526 39.4989 27.0829 39.8234C28.5409 40.4713 30.632 40.8999 33 40.8999C35.368 40.8999 37.4591 40.4713 38.9171 39.8234C39.6474 39.4989 40.1704 39.1409 40.4958 38.7989C40.8159 38.4626 40.9 38.1945 40.9 37.9999V25.9999C40.9 25.3924 41.3925 24.8999 42 24.8999C42.6075 24.8999 43.1 25.3924 43.1 25.9999V37.9999C43.1 38.9103 42.6804 39.6947 42.0895 40.3156C41.504 40.9308 40.7088 41.4347 39.8104 41.8339C38.0109 42.6335 35.602 43.0999 33 43.0999C30.398 43.0999 27.9891 42.6335 26.1896 41.8339C25.2912 41.4347 24.496 40.9308 23.9105 40.3156C23.3196 39.6947 22.9 38.9103 22.9 37.9999V25.9999C22.9 25.3924 23.3925 24.8999 24 24.8999Z" fill="#BFBFBF"/>
<path fill-rule="evenodd" clip-rule="evenodd" d="M24 30.8999C24.6075 30.8999 25.1 31.3924 25.1 31.9999C25.1 32.1945 25.1841 32.4626 25.5042 32.7989C25.8296 33.1409 26.3526 33.4989 27.0829 33.8234C28.5409 34.4713 30.632 34.8999 33 34.8999C35.368 34.8999 37.4591 34.4713 38.9171 33.8234C39.6474 33.4989 40.1704 33.1409 40.4958 32.7989C40.8159 32.4626 40.9 32.1945 40.9 31.9999C40.9 31.3924 41.3925 30.8999 42 30.8999C42.6075 30.8999 43.1 31.3924 43.1 31.9999C43.1 32.9103 42.6804 33.6947 42.0895 34.3156C41.504 34.9308 40.7088 35.4347 39.8104 35.8339C38.0109 36.6335 35.602 37.0999 33 37.0999C30.398 37.0999 27.9891 36.6335 26.1896 35.8339C25.2912 35.4347 24.496 34.9308 23.9105 34.3156C23.3196 33.6947 22.9 32.9103 22.9 31.9999C22.9 31.3924 23.3925 30.8999 24 30.8999Z" fill="#BFBFBF"/>
<path fill-rule="evenodd" clip-rule="evenodd" d="M25.5042 25.2009C25.1841 25.5372 25.1 25.8053 25.1 25.9999C25.1 26.1945 25.1841 26.4626 25.5042 26.7989C25.8296 27.1409 26.3526 27.4989 27.0829 27.8234C28.5409 28.4713 30.632 28.8999 33 28.8999C35.368 28.8999 37.4591 28.4713 38.9171 27.8234C39.6474 27.4989 40.1704 27.1409 40.4958 26.7989C40.8159 26.4626 40.9 26.1945 40.9 25.9999C40.9 25.8053 40.8159 25.5372 40.4958 25.2009C40.1704 24.8589 39.6474 24.5009 38.9171 24.1764C37.4591 23.5285 35.368 23.0999 33 23.0999C30.632 23.0999 28.5409 23.5285 27.0829 24.1764C26.3526 24.5009 25.8296 24.8589 25.5042 25.2009ZM26.1896 22.1659C27.9891 21.3663 30.398 20.8999 33 20.8999C35.602 20.8999 38.0109 21.3663 39.8104 22.1659C40.7088 22.5651 41.504 23.069 42.0895 23.6842C42.6804 24.3051 43.1 25.0895 43.1 25.9999C43.1 26.9103 42.6804 27.6947 42.0895 28.3156C41.504 28.9308 40.7088 29.4347 39.8104 29.8339C38.0109 30.6335 35.602 31.0999 33 31.0999C30.398 31.0999 27.9891 30.6335 26.1896 29.8339C25.2912 29.4347 24.496 28.9308 23.9105 28.3156C23.3196 27.6947 22.9 26.9103 22.9 25.9999C22.9 25.0895 23.3196 24.3051 23.9105 23.6842C24.496 23.069 25.2912 22.5651 26.1896 22.1659Z" fill="#BFBFBF"/>
<path fill-rule="evenodd" clip-rule="evenodd" d="M28.9 3.9999C28.9 3.39239 29.3925 2.8999 30 2.8999H36C37.3526 2.8999 38.6498 3.43722 39.6062 4.39366C40.5627 5.35009 41.1 6.6473 41.1 7.9999V13.9999C41.1 14.6074 40.6075 15.0999 40 15.0999C39.3925 15.0999 38.9 14.6074 38.9 13.9999V7.9999C38.9 7.23077 38.5945 6.49315 38.0506 5.94929C37.5067 5.40544 36.7691 5.0999 36 5.0999H30C29.3925 5.0999 28.9 4.60742 28.9 3.9999Z" fill="#BFBFBF"/>
<path fill-rule="evenodd" clip-rule="evenodd" d="M3.99999 28.8999C4.60751 28.8999 5.09999 29.3924 5.09999 29.9999V35.9999C5.09999 36.769 5.40553 37.5067 5.94938 38.0505C6.49324 38.5944 7.23087 38.8999 7.99999 38.8999H14C14.6075 38.8999 15.1 39.3924 15.1 39.9999C15.1 40.6074 14.6075 41.0999 14 41.0999H7.99999C6.64739 41.0999 5.35018 40.5626 4.39375 39.6061C3.43731 38.6497 2.89999 37.3525 2.89999 35.9999V29.9999C2.89999 29.3924 3.39248 28.8999 3.99999 28.8999Z" fill="#BFBFBF"/>
</svg>
